<?xml version="1.0" encoding="UTF-8"?>
<svg version="1.1" xmlns="http://www.w3.org/2000/svg" width="100" height="100">
<path d="M0 0 C33 0 66 0 100 0 C100 33 100 66 100 100 C67 100 34 100 0 100 C0 67 0 34 0 0 Z " fill="#051C3C" transform="translate(0,0)"/>
<path d="M0 0 C0.28681697 3.35613105 0.33975886 6.60765832 0.26367188 9.97070312 C0.25060573 12.39877274 0.25060573 12.39877274 1 16 C3.8576495 18.73819385 3.8576495 18.73819385 7 21 C8.375 23.8125 8.375 23.8125 9 26 C7.71802734 27.33804688 7.71802734 27.33804688 6.41015625 28.703125 C5.29388843 29.88505563 4.17802399 31.06736731 3.0625 32.25 C2.21655273 33.12978516 2.21655273 33.12978516 1.35351562 34.02734375 C0.81533203 34.60097656 0.27714844 35.17460938 -0.27734375 35.765625 C-0.77484131 36.28930664 -1.27233887 36.81298828 -1.78491211 37.35253906 C-3.18822113 39.25519715 -3.69408626 40.66152477 -4 43 C-2.81473209 45.36874599 -2.81473209 45.36874599 -1.0625 47.625 C2 51.82460137 2 51.82460137 2 54 C-0.64 54 -3.28 54 -6 54 C-7.32 51.69 -8.64 49.38 -10 47 C-10.99 52.94 -11.98 58.88 -13 65 C-16.465 65.495 -16.465 65.495 -20 66 C-20.32227864 58.97224635 -19.12466146 52.18161422 -18.0625 45.25 C-17.88009766 44.01894531 -17.69769531 42.78789063 -17.50976562 41.51953125 C-16.13882212 32.41646635 -16.13882212 32.41646635 -15 29 C-13.02 29 -11.04 29 -9 29 C-9 31.64 -9 34.28 -9 37 C-3.39698948 31.19491074 -3.39698948 31.19491074 0 24 C-7.21423466 17.84668221 -12.82085403 16.30963003 -22.23046875 16.53125 C-28.97906529 17.37045371 -33.54562211 20.08794099 -37.90625 25.26171875 C-42.69539899 32.09529219 -43.58078646 37.73699263 -43 46 C-42.649375 46.99 -42.29875 47.98 -41.9375 49 C-40.55539627 53.42273194 -41.33787411 57.47249051 -42 62 C-47.33911543 57.61429804 -49.57448796 52.23100669 -50.4609375 45.5 C-50.85327515 36.38282022 -49.24397812 29.52860064 -44 22 C-42.30078125 20.453125 -42.30078125 20.453125 -40.6875 19.1875 C-38.10096628 16.98563027 -37.99849007 15.98490068 -37.6484375 12.484375 C-37.60930421 11.13568017 -37.58095274 9.78663627 -37.5625 8.4375 C-37.3665383 1.54505407 -37.3665383 1.54505407 -35.64453125 -1.015625 C-33.80012388 -2.3673761 -32.14361272 -3.21272507 -30 -4 C-28.865625 -4.433125 -27.73125 -4.86625 -26.5625 -5.3125 C-17.08007116 -7.14244241 -8.12494655 -5.41663104 0 0 Z " fill="#EA0D1D" transform="translate(68,21)"/>
<path d="M0 0 C1.98 0 3.96 0 6 0 C6.206949 5.48414857 5.6427217 10.33420438 4.57421875 15.70703125 C3.72323974 20.58713539 3.21108321 25.49977128 2.69775391 30.42553711 C2.10365604 35.89634396 2.10365604 35.89634396 1 37 C-0.99958364 37.04080783 -3.00045254 37.04254356 -5 37 C-4.505 32.545 -4.505 32.545 -4 28 C-6.64 28 -9.28 28 -12 28 C-12 33.61 -12 39.22 -12 45 C-5.32664493 49.10668005 0.20830213 50.01630842 8 49 C14.31753521 47.19636781 20.38004463 43.85486028 24.13745117 38.32641602 C27.16067105 32.79638032 27.38767875 28.39520591 27 22.1875 C26.6097081 15.79159151 26.6097081 15.79159151 27 13 C29 10.92578125 29 10.92578125 31 10 C33.70624043 14.62286164 34.51647306 18.46954558 34.4375 23.75 C34.43065186 24.45302246 34.42380371 25.15604492 34.41674805 25.88037109 C34.14578102 34.72384177 31.26467949 41.73532051 25 48 C16.66824015 54.73671573 9.20250731 56.47111242 -1.53125 56.421875 C-8.03079048 55.63139035 -13.67265915 52.53075289 -18.84375 48.59765625 C-20.49020616 46.32265432 -20.19515274 45.02465711 -19.875 42.25 C-19.70291016 40.68765625 -19.70291016 40.68765625 -19.52734375 39.09375 C-19.35354033 37.72891335 -19.17745179 36.3643671 -19 35 C-18.88285645 34.071875 -18.76571289 33.14375 -18.64501953 32.1875 C-17.79379116 25.45418796 -16.90868196 18.72578521 -16 12 C-13.69 12 -11.38 12 -9 12 C-9.33 14.97 -9.66 17.94 -10 21 C-7.69 21 -5.38 21 -3 21 C-2.95101562 20.154375 -2.90203125 19.30875 -2.8515625 18.4375 C-2.43075986 12.05290815 -1.80649237 6.14207405 0 0 Z " fill="#F2F4F5" transform="translate(47,38)"/>
<path d="M0 0 C3.55764485 1.91252476 6.36020242 4.0463473 9.140625 6.97265625 C7.76878153 11.03764506 5.91994041 13.64662186 3.015625 16.78515625 C2.29117188 17.57535156 1.56671875 18.36554687 0.8203125 19.1796875 C0.26601563 19.77136719 -0.28828125 20.36304687 -0.859375 20.97265625 C-2.39382594 17.90375438 -1.40921789 15.27171359 -0.859375 11.97265625 C-2.839375 11.97265625 -4.819375 11.97265625 -6.859375 11.97265625 C-6.95734375 13.04 -7.0553125 14.10734375 -7.15625 15.20703125 C-8.31202065 26.97560588 -10.37442156 38.41641648 -12.859375 49.97265625 C-21.87745098 48.85746017 -21.87745098 48.85746017 -25.859375 44.97265625 C-26.48714445 41.90624395 -26.21749878 39.06462633 -25.859375 35.97265625 C-25.77816406 35.19277344 -25.69695313 34.41289063 -25.61328125 33.609375 C-25.39586854 31.72624645 -25.13223277 29.84855339 -24.859375 27.97265625 C-22.219375 27.97265625 -19.579375 27.97265625 -16.859375 27.97265625 C-17.189375 30.94265625 -17.519375 33.91265625 -17.859375 36.97265625 C-14.889375 36.47765625 -14.889375 36.47765625 -11.859375 35.97265625 C-11.73876709 34.92307739 -11.73876709 34.92307739 -11.61572266 33.85229492 C-11.24229313 30.62114399 -10.86336245 27.39065981 -10.484375 24.16015625 C-10.29488281 22.50983398 -10.29488281 22.50983398 -10.1015625 20.82617188 C-9.27456757 13.81738982 -8.21552264 6.89875815 -6.859375 -0.02734375 C-8.839375 -0.02734375 -10.819375 -0.02734375 -12.859375 -0.02734375 C-13.59281486 5.52584375 -14.14254523 11.06758882 -14.578125 16.65234375 C-14.859375 18.97265625 -14.859375 18.97265625 -15.859375 20.97265625 C-18.169375 20.97265625 -20.479375 20.97265625 -22.859375 20.97265625 C-22.364375 16.51765625 -22.364375 16.51765625 -21.859375 11.97265625 C-24.169375 11.97265625 -26.479375 11.97265625 -28.859375 11.97265625 C-28.89675781 12.90722656 -28.93414063 13.84179688 -28.97265625 14.8046875 C-29.51700143 25.68091763 -31.00570194 36.24700079 -32.859375 46.97265625 C-33.189375 46.97265625 -33.519375 46.97265625 -33.859375 46.97265625 C-33.83617187 46.17601562 -33.81296875 45.379375 -33.7890625 44.55859375 C-33.69111832 38.80787091 -33.96424939 34.42114238 -35.859375 28.97265625 C-36.72113291 20.66587509 -35.38662596 13.92583527 -30.234375 7.28515625 C-22.17941384 -1.25976606 -11.33383111 -4.07212784 0 0 Z " fill="#0F213F" transform="translate(59.859375,38.02734375)"/>
<path d="M0 0 C0.22137393 2.62697064 0.28162025 5.00893964 0.1875 7.625 C0.16719727 8.68460938 0.16719727 8.68460938 0.14648438 9.765625 C0.1111104 11.51074128 0.05730221 13.25546608 0 15 C-3.29473656 14.48563185 -6.3596294 13.89274211 -9.5625 12.9375 C-18.8993896 10.5809619 -28.09027655 11.62114325 -37 15 C-38.05795037 2.59007422 -38.05795037 2.59007422 -35.6875 -0.97265625 C-33.83663331 -2.32362368 -32.14117253 -3.18971314 -30 -4 C-28.865625 -4.433125 -27.73125 -4.86625 -26.5625 -5.3125 C-17.08007116 -7.14244241 -8.12494655 -5.41663104 0 0 Z " fill="#FCFBFB" transform="translate(68,21)"/>
<path d="M0 0 C2.03773256 0.83964484 4.08117665 1.66550805 6.12890625 2.48046875 C8.27481945 3.37952107 10.41933389 4.28191866 12.5625 5.1875 C14.21862305 5.88262695 14.21862305 5.88262695 15.90820312 6.59179688 C18.60670177 7.72493267 21.30352476 8.86205756 24 10 C24 14.95 24 19.9 24 25 C23.01 25.33 22.02 25.66 21 26 C21 21.71 21 17.42 21 13 C18.36 13.99 15.72 14.98 13 16 C12.76925781 15.39542969 12.53851563 14.79085938 12.30078125 14.16796875 C10.64239277 11.40398796 9.07899548 10.68671899 6.1875 9.3125 C5.33542969 8.89613281 4.48335937 8.47976562 3.60546875 8.05078125 C-3.1403746 5.33019375 -10.36432842 4.6962333 -17.24609375 7.1640625 C-23.35587021 9.74687599 -23.35587021 9.74687599 -27.34375 14.70703125 C-27.66859375 15.84205078 -27.66859375 15.84205078 -28 17 C-29.4589426 16.52269162 -30.91713496 16.04308958 -32.375 15.5625 C-33.18710937 15.29566406 -33.99921875 15.02882813 -34.8359375 14.75390625 C-37 14 -37 14 -39 13 C-38 10 -38 10 -35.3671875 8.41845703 C-32.26347449 6.94254429 -29.1583488 5.47492974 -26.02880859 4.0546875 C-24.02152815 3.13486513 -22.03741947 2.17436564 -20.05078125 1.2109375 C-12.54175395 -2.30300093 -7.64864956 -4.08059822 0 0 Z " fill="#F2F4F5" transform="translate(57,8)"/>
<path d="M0 0 C4.65437712 2.39828393 4.65437712 2.39828393 5.6328125 4.8203125 C5.98442825 7.57062203 5.77569585 10.04532831 5.48046875 12.80078125 C5.37863281 13.785625 5.27679688 14.77046875 5.171875 15.78515625 C5.08808594 16.5328125 5.00429687 17.28046875 4.91796875 18.05078125 C4.58796875 18.05078125 4.25796875 18.05078125 3.91796875 18.05078125 C3.58796875 13.43078125 3.25796875 8.81078125 2.91796875 4.05078125 C1.35046875 3.41140625 -0.21703125 2.77203125 -1.83203125 2.11328125 C-3.15460937 1.57380859 -3.15460937 1.57380859 -4.50390625 1.0234375 C-12.05461795 -1.8252401 -18.45914428 -1.46311378 -26.00390625 1.1015625 C-28.46343175 2.22499238 -30.17271431 3.10796752 -32.08203125 5.05078125 C-32.78327899 8.23674787 -32.78327899 8.23674787 -32.83203125 11.73828125 C-32.88875 12.91777344 -32.94546875 14.09726562 -33.00390625 15.3125 C-33.0296875 16.21613281 -33.05546875 17.11976562 -33.08203125 18.05078125 C-33.41203125 18.05078125 -33.74203125 18.05078125 -34.08203125 18.05078125 C-34.41203125 13.43078125 -34.74203125 8.81078125 -35.08203125 4.05078125 C-22.73970702 -4.4230533 -13.92201186 -6.34718364 0 0 Z " fill="#2B3F5A" transform="translate(64.08203125,16.94921875)"/>
<path d="M0 0 C0.33 0 0.66 0 1 0 C1.33 4.29 1.66 8.58 2 13 C1.01 13.33 0.02 13.66 -1 14 C-1.02685938 11.85423363 -1.04633088 9.70837355 -1.0625 7.5625 C-1.07410156 6.36753906 -1.08570312 5.17257813 -1.09765625 3.94140625 C-1 1 -1 1 0 0 Z " fill="#C0C6CE" transform="translate(79,20)"/>
</svg>
